<svg width="41" height="41" viewBox="0 0 41 41" fill="none" xmlns="http://www.w3.org/2000/svg">
<path d="M30.6422 25.1265H7.78506L0.166016 32.6927V2.4277C0.166016 1.92602 0.366695 1.4449 0.723907 1.09016C1.08112 0.735422 1.5656 0.536133 2.07078 0.536133H30.6422C31.1474 0.536133 31.6319 0.735422 31.9891 1.09016C32.3463 1.4449 32.547 1.92602 32.547 2.4277V23.2349C32.547 23.7366 32.3463 24.2177 31.9891 24.5724C31.6319 24.9272 31.1474 25.1265 30.6422 25.1265ZM40.166 13.7771V40.259L32.547 32.6927H11.5946C11.0894 32.6927 10.6049 32.4934 10.2477 32.1387C9.8905 31.784 9.68983 31.3028 9.68983 30.8012V28.9096H36.3565V11.8855H38.2613C38.7664 11.8855 39.2509 12.0848 39.6081 12.4395C39.9653 12.7943 40.166 13.2754 40.166 13.7771ZM11.9565 4.31926C10.2993 4.31926 8.96602 4.69758 7.93744 5.43529C6.94697 6.21083 6.45173 7.28902 6.47078 8.78336L6.48983 8.8401H10.166C10.1851 8.27263 10.3565 7.83757 10.6993 7.53492C11.0521 7.24446 11.4984 7.09 11.9565 7.09986C12.547 7.09986 13.0422 7.28902 13.3851 7.6295C13.7279 7.9889 13.8803 8.48071 13.8803 9.04817C13.8803 9.65348 13.747 10.1642 13.4422 10.5993C13.1755 11.0343 12.7755 11.4126 12.2803 11.7153C11.3089 12.3584 10.6422 12.9259 10.2803 13.4366C9.89935 13.9284 9.68983 14.7229 9.68983 15.6687H13.4993C13.4993 15.0823 13.5755 14.6094 13.747 14.2689C13.9184 13.9284 14.2422 13.5879 14.7184 13.2853C15.5755 12.8313 16.2803 12.2828 16.8327 11.5261C17.3851 10.7695 17.6708 9.99396 17.6708 9.04817C17.6708 7.61059 17.1565 6.45673 16.1279 5.60553C15.1184 4.75432 13.7279 4.31926 11.9565 4.31926ZM9.68983 17.5602V21.3433H13.4993V17.5602H9.68983ZM21.1184 21.3433H24.9279V17.5602H21.1184V21.3433ZM21.1184 4.31926V15.6687H24.9279V4.31926H21.1184Z" fill="#E9E7E7"/>
</svg>
