<svg width="24" height="25" viewBox="0 0 24 25" fill="none" xmlns="http://www.w3.org/2000/svg">
<path fill-rule="evenodd" clip-rule="evenodd" d="M4.00195 12.0537C4.0021 10.5142 4.44647 9.00736 5.28174 7.71409C6.11702 6.42083 7.30771 5.39605 8.71096 4.76272C10.1142 4.12939 11.6704 3.91442 13.1928 4.14358C14.7152 4.37275 16.1391 5.03633 17.2937 6.0547C18.4483 7.07307 19.2846 8.40297 19.7021 9.88482C20.1197 11.3667 20.1007 12.9375 19.6476 14.4089C19.1946 15.8802 18.3265 17.1896 17.1477 18.1799C15.9689 19.1702 14.5294 19.7993 13.002 19.9917V14.0537H15.002C15.2672 14.0537 15.5215 13.9484 15.7091 13.7608C15.8966 13.5733 16.002 13.3189 16.002 13.0537C16.002 12.7885 15.8966 12.5341 15.7091 12.3466C15.5215 12.1591 15.2672 12.0537 15.002 12.0537H13.002V10.0537C13.002 9.78849 13.1073 9.53414 13.2948 9.3466C13.4824 9.15907 13.7367 9.05371 14.002 9.05371H14.502C14.7672 9.05371 15.0215 8.94835 15.2091 8.76082C15.3966 8.57328 15.502 8.31893 15.502 8.05371C15.502 7.78849 15.3966 7.53414 15.2091 7.3466C15.0215 7.15907 14.7672 7.05371 14.502 7.05371H14.002C13.2063 7.05371 12.4432 7.36978 11.8806 7.93239C11.318 8.495 11.002 9.25806 11.002 10.0537V12.0537H9.00195C8.73674 12.0537 8.48238 12.1591 8.29485 12.3466C8.10731 12.5341 8.00195 12.7885 8.00195 13.0537C8.00195 13.3189 8.10731 13.5733 8.29485 13.7608C8.48238 13.9484 8.73674 14.0537 9.00195 14.0537H11.002V19.9917C9.06865 19.7479 7.29077 18.807 6.00196 17.3455C4.71314 15.8839 4.00199 14.0023 4.00195 12.0537ZM12.002 22.0537C17.525 22.0537 22.002 17.5767 22.002 12.0537C22.002 6.53071 17.525 2.05371 12.002 2.05371C6.47895 2.05371 2.00195 6.53071 2.00195 12.0537C2.00195 17.5767 6.47895 22.0537 12.002 22.0537Z" fill="white"/>
</svg>
