<svg width="26" height="26" viewBox="0 0 26 26" fill="none" xmlns="http://www.w3.org/2000/svg">
<path d="M16.8942 4.55469H9.10505C6.59172 4.55469 4.55469 6.59208 4.55469 9.10505V16.8942C4.55469 19.4075 6.59208 21.4446 9.10541 21.4446H16.8939C19.4072 21.4446 21.4446 19.4072 21.4446 16.8939V9.10505C21.4446 6.59172 19.4075 4.55469 16.8942 4.55469Z" fill="#5285D1"/>
<path d="M16.8942 4.55469H9.10505C6.59172 4.55469 4.55469 6.59208 4.55469 9.10505V16.8942C4.55469 19.4075 6.59208 21.4446 9.10541 21.4446H16.8939C19.4072 21.4446 21.4446 19.4072 21.4446 16.8939V9.10505C21.4446 6.59172 19.4075 4.55469 16.8942 4.55469Z" stroke="white" stroke-width="2" stroke-miterlimit="10"/>
<path d="M12.9998 17.0767C15.2514 17.0767 17.0767 15.2514 17.0767 12.9998C17.0767 10.7482 15.2514 8.92285 12.9998 8.92285C10.7482 8.92285 8.92285 10.7482 8.92285 12.9998C8.92285 15.2514 10.7482 17.0767 12.9998 17.0767Z" stroke="white" stroke-width="2" stroke-miterlimit="10"/>
<path d="M17.9507 8.92284C18.4331 8.92284 18.8242 8.53175 18.8242 8.04931C18.8242 7.56687 18.4331 7.17578 17.9507 7.17578C17.4682 7.17578 17.0771 7.56687 17.0771 8.04931C17.0771 8.53175 17.4682 8.92284 17.9507 8.92284Z" fill="white"/>
</svg>
