<svg width="22" height="18" viewBox="0 0 22 18" fill="none" xmlns="http://www.w3.org/2000/svg">
<path d="M14.025 7.67259L10.0513 5.38459C9.81802 5.25027 9.55349 5.17967 9.28428 5.17987C9.01507 5.18006 8.75064 5.25106 8.51753 5.38572C8.28442 5.52038 8.09083 5.71398 7.95617 5.94709C7.82151 6.1802 7.75052 6.44463 7.75033 6.71384V11.2877C7.74708 11.8358 8.03958 12.3428 8.51516 12.6137C8.74833 12.7499 9.01345 12.8219 9.28349 12.8222C9.55353 12.8226 9.81885 12.7514 10.0524 12.6158L14.025 10.3278C14.2584 10.1937 14.4522 10.0004 14.587 9.76736C14.7218 9.53436 14.7928 9.26994 14.7928 9.00076C14.7928 8.73158 14.7218 8.46715 14.587 8.23416C14.4522 8.00116 14.2584 7.80783 14.025 7.67367V7.67259ZM13.4833 9.38643L9.51183 11.6755C9.443 11.7159 9.36466 11.7372 9.28487 11.7372C9.20508 11.7372 9.12673 11.7159 9.05791 11.6755C8.98904 11.6365 8.9319 11.5798 8.89245 11.5112C8.85301 11.4426 8.8327 11.3646 8.83366 11.2855V6.71384C8.8329 6.6349 8.85329 6.55719 8.89273 6.48879C8.93217 6.4204 8.9892 6.36382 9.05791 6.32492C9.12613 6.2834 9.20446 6.26144 9.28433 6.26144C9.36419 6.26144 9.44252 6.2834 9.51074 6.32492L13.4833 8.61401C13.5518 8.6527 13.6088 8.7089 13.6485 8.77685C13.6882 8.84481 13.7091 8.92208 13.7091 9.00076C13.7091 9.07944 13.6882 9.15671 13.6485 9.22466C13.6088 9.29262 13.5518 9.34773 13.4833 9.38643ZM18.5837 0.333008H3.41699C2.5553 0.333868 1.72915 0.676554 1.11985 1.28586C0.510539 1.89517 0.167853 2.72132 0.166992 3.58301V14.4163C0.167853 15.278 0.510539 16.1042 1.11985 16.7135C1.72915 17.3228 2.5553 17.6655 3.41699 17.6663H18.5837C19.4453 17.6655 20.2715 17.3228 20.8808 16.7135C21.4901 16.1042 21.8328 15.278 21.8337 14.4163V3.58301C21.8328 2.72132 21.4901 1.89517 20.8808 1.28586C20.2715 0.676554 19.4453 0.333868 18.5837 0.333008ZM20.7503 14.4163C20.7495 14.9907 20.5209 15.5413 20.1148 15.9475C19.7086 16.3536 19.158 16.5821 18.5837 16.583H3.41699C2.84262 16.5821 2.29202 16.3536 1.88588 15.9475C1.47973 15.5413 1.25119 14.9907 1.25033 14.4163V3.58301C1.25119 3.00864 1.47973 2.45804 1.88588 2.05189C2.29202 1.64575 2.84262 1.4172 3.41699 1.41634H18.5837C19.158 1.4172 19.7086 1.64575 20.1148 2.05189C20.5209 2.45804 20.7495 3.00864 20.7503 3.58301V14.4163Z" fill="white"/>
</svg>
